<?xml version="1.0" encoding="UTF-8"?><!DOCTYPE svg PUBLIC "-//W3C//DTD SVG 1.1//EN" "http://www.w3.org/Graphics/SVG/1.1/DTD/svg11.dtd"><svg xmlns="http://www.w3.org/2000/svg" xmlns:xlink="http://www.w3.org/1999/xlink"><defs/><symbol id="about" viewBox="0 0 512 512"><path fill="#c3e678" d="M238.9 191.86h239.43a25.65 25.65 0 0 1 25.65 25.65v153.92a25.65 25.65 0 0 1-25.65 25.66H341.5v28.2c0 5.37-6.5 8.06-10.3 4.26l-32.46-32.46H238.9a25.65 25.65 0 0 1-25.65-25.66V217.51a25.65 25.65 0 0 1 25.65-25.65z"/><path fill="#a5d76e" d="M213.24 217.51v153.92c0 4.9 1.44 9.42 3.82 13.31 62.89-25.27 107.34-86.71 107.34-158.64 0-11.73-1.19-23.18-3.44-34.24H238.9a25.65 25.65 0 0 0-25.65 25.65z"/><path fill="#ff6464" d="M298.75 226.06c0-80.29-65.08-145.37-145.37-145.37S8 145.77 8 226.06c0 70.34 49.95 128.98 116.3 142.45l43.78 43.79a6.41 6.41 0 0 0 10.95-4.54v-38.72c68.03-12.14 119.72-71.46 119.72-142.98z"/><circle cx="153.38" cy="226.1" r="111.17" fill="#d2555a"/><path d="M478.33 183.82H300.8a153.63 153.63 0 0 0-45.13-72.04c-32.92-29.48-75.45-43.02-119.75-38.12C64.87 81.52 8.05 138.87.81 210.03c-3.95 38.85 6.67 77.25 29.9 108.14A153.22 153.22 0 0 0 120.93 376l37.85 37.84a16.51 16.51 0 0 0 18.05 3.6 16.52 16.52 0 0 0 10.23-15.31v-26.5c6.22-1.4 12.28-3.15 18.17-5.26v1.05a33.7 33.7 0 0 0 33.67 33.67h56.54l30.12 30.12a14 14 0 0 0 15.3 3.05 14 14 0 0 0 8.67-12.98v-20.19h128.81A33.7 33.7 0 0 0 512 371.41V217.5a33.71 33.71 0 0 0-33.67-33.67zm-300.7 177.34a8.02 8.02 0 0 0-6.61 7.9v33.06c0 .19 0 .35-.33.49s-.45.02-.59-.12l-39.54-39.53a8 8 0 0 0-4.1-2.2 137.18 137.18 0 0 1-82.93-52.23c-20.8-27.65-30.31-62.06-26.77-96.87 3.12-30.69 17.01-59.88 39.12-82.2 22.1-22.31 51.16-36.47 81.8-39.86 5.33-.6 10.63-.88 15.89-.88 33.9 0 65.88 12.15 91.4 35a137.57 137.57 0 0 1 45.76 102.36c0 66.58-47.56 123.4-113.1 135.08zm318.34 10.25c0 9.73-7.92 17.64-17.64 17.64H341.5a8.02 8.02 0 0 0-8.02 8.02v23.4l-29.07-29.07a8.01 8.01 0 0 0-5.67-2.35H238.9a17.66 17.66 0 0 1-17.63-17.64v-7.81a153.09 153.09 0 0 0 83.23-163.75h173.84c9.72 0 17.64 7.92 17.64 17.64v153.92z"/><path d="M438.45 246.03l-79.84 79.84-37.07-37.07a8.02 8.02 0 1 0-11.34 11.34l42.74 42.74a8 8 0 0 0 11.34 0l85.51-85.52a8.02 8.02 0 0 0-11.34-11.33zm-285.07 40.43a8.03 8.03 0 0 0 0 16.05 8.03 8.03 0 0 0 8.03-8.01v-.01c0-4.43-3.6-8.03-8.03-8.03zm0-136.81c-28 0-50.77 22.78-50.77 50.78a8.02 8.02 0 0 0 16.03 0 34.78 34.78 0 0 1 34.74-34.74c9.03 0 17.7 3.68 24.38 10.36s10.36 15.34 10.36 24.38a34.96 34.96 0 0 1-24.74 33.28 25 25 0 0 0-18.02 24.02v2.56a8.02 8.02 0 0 0 16.04 0v-2.56c0-4 2.64-7.48 6.58-8.66a51.1 51.1 0 0 0 36.17-48.64c0-13.32-5.34-26-15.06-35.72-9.7-9.7-22.4-15.06-35.72-15.06z"/></symbol><symbol id="add" viewBox="0 0 286.05 286.05"><path fill="#5CC514" d="M143.03 0C64.03 0 0 64.04 0 143.03c0 79 64.03 143.02 143.03 143.02 78.98 0 143.02-64.03 143.02-143.02C286.05 64.04 222.01 0 143.03 0zm0 259.24c-64.19 0-116.21-52.03-116.21-116.21s52.02-116.2 116.2-116.2 116.22 52.01 116.22 116.2-52.04 116.2-116.21 116.2zm53.8-134.1H160.9V89.4c0-4.93-4-8.94-8.94-8.94h-17.88c-4.94 0-8.94 4-8.94 8.94v35.76H89.4c-4.95 0-8.96 4-8.96 8.94v17.88c0 4.94 4 8.94 8.96 8.94h35.75v35.67c0 4.94 4 8.93 8.94 8.93h17.88c4.93 0 8.93-4 8.93-8.93v-35.67h35.94c4.95 0 8.96-4 8.96-8.94V134.1a8.97 8.97 0 0 0-8.97-8.94z"/></symbol><symbol id="calendar" viewBox="0 0 512 512"><path fill="#f0f0f0" d="M34.9 465.45h364.73c9.2 0 18.17-3.72 24.68-10.21l54.19-54.2a35.15 35.15 0 0 0 10.23-24.68V81.46c0-6.42-5.23-11.64-11.64-11.64H34.91a11.66 11.66 0 0 0-11.64 11.64v372.36c0 6.41 5.23 11.63 11.64 11.63z" data-old_color="#F1F1F2" data-original="#ECEFF9"/><path fill="#e04c3c" d="M488.73 81.45c0-6.4-5.23-11.63-11.64-11.63H34.91a11.66 11.66 0 0 0-11.64 11.64v69.81h465.46V81.45z" data-old_color="#DF4B3B" data-original="#F04D4E"/><path fill="#de4c3c" d="M477.1 69.82h-11.65v34.9A23.27 23.27 0 0 1 442.19 128H46.55a23.27 23.27 0 0 0-23.28 23.27h465.46V81.45c0-6.42-5.22-11.63-11.64-11.63z" data-old_color="#de4c3c" data-original="#DD353F"/><circle cx="116.36" cy="267.64" r="23.27" data-old_color="#020202" data-original="#014463"/><circle cx="209.46" cy="267.64" r="23.27" data-old_color="#020202" data-original="#014463"/><circle cx="302.55" cy="267.64" r="23.27" data-old_color="#020202" data-original="#014463"/><circle cx="395.64" cy="267.64" r="23.27" data-old_color="#020202" data-original="#014463"/><circle cx="116.36" cy="360.73" r="23.27" data-old_color="#020202" data-original="#014463"/><circle cx="209.46" cy="360.73" r="23.27" data-old_color="#020202" data-original="#014463"/><circle cx="302.55" cy="360.73" r="23.27" fill="#de4c3c" data-old_color="#de4c3c" data-original="#F04B4D"/><circle cx="395.64" cy="360.73" r="23.27" fill="#de4c3c" data-old_color="#de4c3c" data-original="#F04B4D"/><rect width="465.45" height="23.27" x="23.27" y="174.54" fill="#f0f0f0" data-old_color="#F6F6F6" data-original="#D4E3EE"/><path d="M477.1 46.55H372.35V34.9a11.64 11.64 0 0 0-23.27 0v11.64H162.91V34.9a11.64 11.64 0 0 0-23.27 0v11.64H34.9A34.95 34.95 0 0 0 0 81.44v372.37a34.95 34.95 0 0 0 34.9 34.9h364.73a57.8 57.8 0 0 0 41.13-17.03l54.2-54.19A57.8 57.8 0 0 0 512 376.35V81.45a34.95 34.95 0 0 0-34.9-34.9zM430.53 449v-30.1c0-6.4 5.23-11.63 11.64-11.63h30.1L430.54 449zm58.19-88.27A23.3 23.3 0 0 1 465.45 384h-23.27a34.95 34.95 0 0 0-34.9 34.9v23.28A23.3 23.3 0 0 1 384 465.46H34.9a11.66 11.66 0 0 1-11.63-11.64V174.55h465.46v186.18zm0-209.46H23.27V81.45c0-6.4 5.23-11.63 11.64-11.63h104.73v14.87A23.18 23.18 0 0 0 128 104.73a23.28 23.28 0 0 0 46.54 0c0-8.6-4.7-16.03-11.63-20.05V69.82h186.18v14.87a23.18 23.18 0 0 0-11.63 20.04 23.28 23.28 0 0 0 46.54 0c0-8.6-4.71-16.03-11.64-20.05V69.82H477.1c6.41 0 11.64 5.22 11.64 11.63v69.82z" data-old_color="#020202" data-original="#014463"/><path fill="#f0f0f0" d="M430.55 449v-30.1c0-6.4 5.22-11.63 11.63-11.63h30.1L430.54 449z" data-old_color="#BFC0C1" data-original="#C4D7E5"/></symbol><symbol id="check-blue" viewBox="0 0 26 26"><path fill="#286090" d="M22.57 4.73l-1.8-1.22c-.5-.33-1.17-.2-1.5.29l-8.8 12.96-4.03-4.04a1.08 1.08 0 0 0-1.53 0l-1.54 1.53a1.1 1.1 0 0 0 0 1.54L9.58 22c.35.35.9.61 1.39.61.5 0 .99-.3 1.3-.77l10.59-15.6c.33-.5.2-1.17-.3-1.51z"/></symbol><symbol id="chevron" viewBox="0 0 451.85 451.85"><path fill="#989898" d="M345.44 248.3L151.15 442.56a31.64 31.64 0 0 1-44.75-44.74l171.92-171.91L106.4 54.02a31.65 31.65 0 0 1 44.75-44.75l194.29 194.28a31.53 31.53 0 0 1 9.26 22.37c0 8.1-3.1 16.2-9.27 22.37z"/></symbol><symbol id="error" viewBox="0 0 286.05 286.05"><path fill="#e2574c" d="M168.35 142.92l25.28-25.28a8.93 8.93 0 0 0 0-12.64L181 92.36a8.94 8.94 0 0 0-12.64 0l-25.29 25.28-25.27-25.27a8.95 8.95 0 0 0-12.66-.01L92.5 105a8.93 8.93 0 0 0 .02 12.65l25.27 25.27-25.22 25.23a8.93 8.93 0 0 0 0 12.64l12.64 12.65a8.94 8.94 0 0 0 12.64 0l25.22-25.23 25.4 25.42a8.94 8.94 0 0 0 12.67 0L193.76 181a8.95 8.95 0 0 0-.01-12.66l-25.4-25.42zM143.03 0C64.03 0 0 64.04 0 143.02c0 79 64.03 143.03 143.03 143.03s143.02-64.03 143.02-143.03C286.05 64.04 222.02 0 143.03 0zm0 259.23c-64.19 0-116.21-52.02-116.21-116.2S78.84 26.8 143.02 26.8s116.22 52.03 116.22 116.21-52.03 116.21-116.21 116.21z"/></symbol><symbol id="no-result" viewBox="0 0 286.05 286.05"><path fill="#e2574c" d="M143.03 0C64.04 0 0 64.04 0 143.03c0 79 64.04 143.02 143.03 143.02 79 0 143.02-64.02 143.02-143.02C286.05 64.04 222.02 0 143.03 0zm0 259.24c-64.19 0-116.21-52.03-116.21-116.21S78.84 26.82 143.02 26.82s116.22 52.02 116.22 116.2-52.03 116.22-116.21 116.22zm0-196.51c-10.24 0-17.99 5.34-17.99 13.98v79.2c0 8.64 7.75 13.97 18 13.97 9.99 0 18-5.55 18-13.97V76.7c-.01-8.43-8.01-13.98-18-13.98zm0 125a17.88 17.88 0 0 0-17.85 17.85 17.86 17.86 0 1 0 17.85-17.86z"/></symbol><symbol id="shopping-bag" viewBox="0 0 201.39 201.39"><path d="M126.3 51.2H75.1a3.41 3.41 0 0 1-3.42-3.41V29c0-16 13.01-29.01 29.01-29.01S129.7 13.01 129.7 29v18.8a3.41 3.41 0 0 1-3.4 3.41zm-47.8-6.83h44.38V29.01c0-12.23-9.96-22.18-22.19-22.18S78.5 16.78 78.5 29v15.36z"/><polygon fill="#8c6b3b" points="175.785 64.853 25.598 64.853 35.838 47.787 165.545 47.787"/><path d="M175.78 68.27H25.6a3.41 3.41 0 0 1-2.93-5.17l10.24-17.07a3.4 3.4 0 0 1 2.93-1.66h129.7c1.2 0 2.32.63 2.93 1.66l10.24 17.07a3.41 3.41 0 0 1-2.93 5.17zM31.63 61.44h138.13L163.6 51.2H37.77l-6.14 10.24z"/><rect width="47.78" height="51.2" x="105.81" y="27.29" fill="#83d816" transform="rotate(-166.838 129.705 52.891)"/><path d="M147.14 86.69a3.1 3.1 0 0 1-.78-.1L99.83 75.72a3.41 3.41 0 0 1-2.55-4.1l11.67-49.85a3.4 3.4 0 0 1 4.1-2.54l46.53 10.88a3.41 3.41 0 0 1 2.54 4.1l-11.66 49.85a3.41 3.41 0 0 1-3.32 2.64zm-42.43-16.84l39.88 9.32 10.1-43.2-39.88-9.33-10.1 43.2z"/><rect width="57.49" height="61.59" x="42.33" y="16.94" fill="#2a8ee6" transform="rotate(173.265 71.07 47.74)"/><path d="M46.13 85.12a3.41 3.41 0 0 1-3.38-3.02l-7.23-61.16a3.42 3.42 0 0 1 2.99-3.8L95.6 10.4a3.41 3.41 0 0 1 3.79 2.99l7.23 61.17a3.4 3.4 0 0 1-2.99 3.79l-57.09 6.74-.4.03zm-3.43-61.6l6.43 54.4 50.3-5.95-6.42-54.4-50.31 5.95z"/><rect width="56.56" height="59.52" x="70.59" y="41.97" fill="#ed5481" transform="rotate(166.483 98.87 71.728)"/><path d="M78.32 110.69a3.41 3.41 0 0 1-3.31-2.62L61.09 50.2a3.41 3.41 0 0 1 2.52-4.11l54.99-13.23a3.43 3.43 0 0 1 4.12 2.52l13.91 57.88a3.4 3.4 0 0 1-2.52 4.11L79.12 110.6c-.26.07-.53.1-.8.1zm-9.8-58.77l12.33 51.24 48.35-11.62-12.32-51.24-48.35 11.63z"/><polygon fill="#fbad4a" points="182.612 197.973 18.772 197.973 25.598 64.853 175.785 64.853"/><path d="M182.61 201.39H18.77a3.42 3.42 0 0 1-3.4-3.6l6.82-133.11a3.41 3.41 0 0 1 3.41-3.24h150.19a3.41 3.41 0 0 1 3.4 3.24l6.83 133.12a3.41 3.41 0 0 1-3.4 3.59zm-160.25-6.83h156.66l-6.48-126.3H28.84l-6.48 126.3z"/><circle cx="126.29" cy="85.33" r="6.83" fill="#8c6b3b"/><path d="M126.3 95.57a10.25 10.25 0 0 1 0-20.48 10.25 10.25 0 0 1 0 20.48zm0-13.65a3.42 3.42 0 1 0 0 6.83 3.42 3.42 0 0 0 0-6.83z"/><circle cx="75.09" cy="85.33" r="6.83" fill="#8c6b3b"/><path d="M75.1 95.57a10.25 10.25 0 0 1 0-20.48 10.25 10.25 0 0 1 0 20.48zm0-13.65a3.42 3.42 0 1 0 0 6.83 3.42 3.42 0 0 0 0-6.83z"/><path d="M100.7 136.53c-16 0-29.02-13.01-29.02-29.01V88.75a3.41 3.41 0 0 1 6.82 0v18.77c0 12.23 9.96 22.19 22.2 22.19s22.18-9.96 22.18-22.19V90.06a3.41 3.41 0 0 1 3.15-4.73h.26a3.41 3.41 0 0 1 3.41 3.42v18.77c0 16-13.01 29.01-29 29.01z"/></symbol><symbol id="success" viewBox="0 0 286.05 286.05"><path fill="#5CC514" d="M143.03 0C64.03 0 0 64.04 0 143.03c0 79 64.03 143.02 143.03 143.02 78.99 0 143.02-64.03 143.02-143.02C286.05 64.05 222.02 0 143.03 0zm0 259.24c-64.18 0-116.2-52.03-116.2-116.21S78.85 26.82 143.02 26.82s116.2 52.02 116.2 116.2-52.02 116.22-116.2 116.22zm56.21-177.05A12.45 12.45 0 0 0 181.9 87l-47.96 86.15-26.71-32.51c-4.84-5.57-11.26-8.46-17.33-4.83-6.08 3.64-8.6 12.4-4.66 18l37.17 45.25c2.78 3.6 5.95 5.77 9.27 6.39l.03.05.34.02c.75.12 11.97 2.2 16.81-6.46l55.05-98.88c3.5-6.31 1.41-14.36-4.67-18z" data-old_color="#5CC614" data-original="#3DB39E"/></symbol><symbol id="top" viewBox="0 0 511.19 511.19"><path fill="#292f33" d="M364.86 157.94L266.25 12.65C257.71.06 244.1.33 236 13.18L145.12 157.4c-8.08 12.85-2.56 23.38 12.3 23.38h26.64v50.15a28.45 28.45 0 0 0 28.45 28.45h85.34a28.44 28.44 0 0 0 28.44-28.45v-50.15h27c14.87 0 20.12-10.26 11.56-22.85M51.12 338.63h-31.5C5.76 338.63 0 328.5 0 318.7c0-10.1 7.22-19.91 19.64-19.91h106.22c12.44 0 19.67 9.81 19.67 19.91 0 9.8-5.78 19.93-19.67 19.93H94.41v144.9c0 14.46-9.23 22.53-21.65 22.53S51.11 498 51.11 483.54V338.63zm249.44 62.93c0-34.92-18.19-66.41-54.27-66.41-36.1 0-54.29 31.49-54.29 66.41 0 35.22 17.63 66.39 54.29 66.39s54.27-31.17 54.27-66.39m-153.59 0c0-60.05 40.4-106.25 99.32-106.25 58 0 99.3 47.65 99.3 106.25 0 59.75-40.13 106.25-99.3 106.25-58.62 0-99.32-46.5-99.32-106.25M407 398.1h29.45c18.17 0 29.71-13.28 29.71-30.59 0-17.34-11.54-30.62-29.71-30.62H407v61.2zm-43.33-76.79c0-13.57 8.09-22.5 22.54-22.5h51.08c42.46 0 73.9 27.7 73.9 68.99 0 42.12-32.6 68.41-72.16 68.41H407v47.35c0 14.44-9.24 22.53-21.62 22.53-12.47 0-21.7-8.1-21.7-22.53V321.3z"/></symbol><symbol id="&#x410;&#x434;&#x43C;&#x438;&#x43D;&#x438;&#x441;&#x442;&#x440;&#x430;&#x442;&#x43E;&#x440;" viewBox="0 0 512 512"><path fill="#303c42" d="M462.52 234.67h-48.56a117.31 117.31 0 0 0 12.7-53.34c0-26.91-15.24-57.99-45.3-92.35C305.68 2.5 260.85 0 256 0c-4.85 0-49.69 2.5-125.35 88.98-30.07 34.36-45.32 65.44-45.32 92.35a117.4 117.4 0 0 0 12.71 53.34H49.48a49.53 49.53 0 0 0-48.52 59.2L37.73 477.7A42.8 42.8 0 0 0 79.56 512h352.88a42.8 42.8 0 0 0 41.83-34.3l36.77-183.85a49.53 49.53 0 0 0-48.52-59.19z"/><path fill="#5f6369" d="M313.37 234.67c13.68-12.87 20.48-28.24 23.78-36.36 12.9-5.26 21.62-22.72 24.44-35.2 25.84 8.27 38.72 17.93 43.48 22.27-1.05 24.57-10.9 42.16-15.76 49.29h-75.94z"/><path fill="#adb3b8" d="M194.2 189.27c-.8-1.96-1.45-3.57-2.01-4.72-1.8-3.69-5.2-5.99-9.3-5.99-3.84-1.13-10.74-13.64-11.97-20.97 21.56-4.8 49.33-8.26 85.08-8.26s63.52 3.46 85.08 8.26c-1.23 7.33-8.1 19.84-11.66 20.94-4.09 0-7.82 2.33-9.6 6.02-.57 1.15-1.22 2.76-2.03 4.72-5.96 14.74-18.37 45.4-61.8 45.4s-55.82-30.66-61.78-45.4z"/><path d="M180.94 176.96c19.97-3.71 44.34-6.3 74.8-6.3 30.76 0 55.3 2.64 75.38 6.41 3.7-3.35 8.9-13.14 9.96-19.48-21.56-4.8-49.33-8.26-85.08-8.26s-63.52 3.46-85.08 8.27c1.05 6.25 6.14 15.85 10.03 19.36z" opacity=".1"/><path fill="#797d82" d="M146.69 103.02c69.23-79.1 109.14-81.68 109.08-81.69.4.01 40.31 2.6 109.54 81.7 16.76 19.14 28.39 37.1 34.64 53.15C376.2 143.09 332.36 128 256 128s-120.2 15.1-143.95 28.18c6.25-16.05 17.89-34 34.64-53.16z"/><path fill="#fff" d="M134.5 128.17C211.45 49.08 255.81 46.5 255.74 46.5c.44 0 44.81 2.59 121.76 81.68a258.55 258.55 0 0 1 20.52 23.8c-6.56-14.97-17.38-31.42-32.7-48.95-69.24-79.1-109.15-81.68-109.55-81.69.06.01-39.85 2.6-109.08 81.69-15.33 17.53-26.15 33.98-32.71 48.96a258.97 258.97 0 0 1 20.52-23.8z" opacity=".2"/><path fill="#5f6369" d="M106.92 185.4c4.85-4.4 17.74-14.04 43.5-22.29 2.81 12.49 11.53 29.94 24.43 35.2 3.3 8.11 10.1 23.48 23.78 36.36h-75.99c-4.88-7.07-14.67-24.49-15.72-49.27z"/><path d="M313.37 234.67c13.68-12.87 20.48-28.24 23.78-36.36 12.9-5.26 21.62-22.72 24.44-35.2 25.84 8.27 38.72 17.93 43.48 22.27-1.05 24.57-10.9 42.16-15.76 49.29h-75.94zM106.92 185.4c4.85-4.4 17.74-14.04 43.5-22.29 2.81 12.49 11.53 29.94 24.43 35.2 3.3 8.11 10.1 23.48 23.78 36.36h-75.99c-4.88-7.07-14.67-24.49-15.72-49.27z" opacity=".2"/><path fill="#f1f0ed" d="M490.13 289.68L453.35 473.5a21.41 21.41 0 0 1-20.91 17.16H79.56a21.41 21.41 0 0 1-20.91-17.16L21.88 289.69A28.18 28.18 0 0 1 49.48 256h413.04a28.18 28.18 0 0 1 27.6 33.68z"/><path d="M476.04 259.95c2.3 4.08 3.96 8.54 3.96 13.54 0 1.85-.19 3.7-.54 5.52l-36.77 183.83A21.41 21.41 0 0 1 421.77 480H68.9c-3.03 0-5.85-.82-8.5-1.99 3.42 7.47 10.7 12.66 19.16 12.66h352.88a21.41 21.41 0 0 0 20.91-17.16l36.78-183.83c.35-1.82.54-3.67.54-5.52 0-10.53-6.05-19.38-14.63-24.2z" opacity=".1"/><circle cx="256" cy="384" r="21.33" fill="#d7d8d6"/><linearGradient id="a" x1="-44.98" x2="-23" y1="637.37" y2="627.11" gradientTransform="matrix(21.3333 0 0 -21.3333 996.333 13791.667)" gradientUnits="userSpaceOnUse"><stop offset="0" stop-color="#fff" stop-opacity=".2"/><stop offset="1" stop-color="#fff" stop-opacity="0"/></linearGradient><path fill="url(#a)" d="M462.52 234.67h-48.56a117.31 117.31 0 0 0 12.7-53.34c0-26.91-15.24-57.99-45.3-92.35C305.68 2.5 260.85 0 256 0c-4.85 0-49.69 2.5-125.35 88.98-30.07 34.36-45.32 65.44-45.32 92.35a117.4 117.4 0 0 0 12.71 53.34H49.48a49.53 49.53 0 0 0-48.52 59.2L37.73 477.7A42.8 42.8 0 0 0 79.56 512h352.88a42.8 42.8 0 0 0 41.83-34.3l36.77-183.85a49.53 49.53 0 0 0-48.52-59.19z"/></symbol></svg>