<svg xmlns="http://www.w3.org/2000/svg" viewBox="0 0 512 512"><path fill="#c3e678" d="M238.9 191.86h239.43a25.65 25.65 0 0 1 25.65 25.65v153.92a25.65 25.65 0 0 1-25.65 25.66H341.5v28.2c0 5.37-6.5 8.06-10.3 4.26l-32.46-32.46H238.9a25.65 25.65 0 0 1-25.65-25.66V217.51a25.65 25.65 0 0 1 25.65-25.65z"/><path fill="#a5d76e" d="M213.24 217.51v153.92c0 4.9 1.44 9.42 3.82 13.31 62.89-25.27 107.34-86.71 107.34-158.64 0-11.73-1.19-23.18-3.44-34.24H238.9a25.65 25.65 0 0 0-25.65 25.65z"/><path fill="#ff6464" d="M298.75 226.06c0-80.29-65.08-145.37-145.37-145.37S8 145.77 8 226.06c0 70.34 49.95 128.98 116.3 142.45l43.78 43.79a6.41 6.41 0 0 0 10.95-4.54v-38.72c68.03-12.14 119.72-71.46 119.72-142.98z"/><circle cx="153.38" cy="226.1" r="111.17" fill="#d2555a"/><path d="M478.33 183.82H300.8a153.63 153.63 0 0 0-45.13-72.04c-32.92-29.48-75.45-43.02-119.75-38.12C64.87 81.52 8.05 138.87.81 210.03c-3.95 38.85 6.67 77.25 29.9 108.14A153.22 153.22 0 0 0 120.93 376l37.85 37.84a16.51 16.51 0 0 0 18.05 3.6 16.52 16.52 0 0 0 10.23-15.31v-26.5c6.22-1.4 12.28-3.15 18.17-5.26v1.05a33.7 33.7 0 0 0 33.67 33.67h56.54l30.12 30.12a14 14 0 0 0 15.3 3.05 14 14 0 0 0 8.67-12.98v-20.19h128.81A33.7 33.7 0 0 0 512 371.41V217.5a33.71 33.71 0 0 0-33.67-33.67zm-300.7 177.34a8.02 8.02 0 0 0-6.61 7.9v33.06c0 .19 0 .35-.33.49s-.45.02-.59-.12l-39.54-39.53a8 8 0 0 0-4.1-2.2 137.18 137.18 0 0 1-82.93-52.23c-20.8-27.65-30.31-62.06-26.77-96.87 3.12-30.69 17.01-59.88 39.12-82.2 22.1-22.31 51.16-36.47 81.8-39.86 5.33-.6 10.63-.88 15.89-.88 33.9 0 65.88 12.15 91.4 35a137.57 137.57 0 0 1 45.76 102.36c0 66.58-47.56 123.4-113.1 135.08zm318.34 10.25c0 9.73-7.92 17.64-17.64 17.64H341.5a8.02 8.02 0 0 0-8.02 8.02v23.4l-29.07-29.07a8.01 8.01 0 0 0-5.67-2.35H238.9a17.66 17.66 0 0 1-17.63-17.64v-7.81a153.09 153.09 0 0 0 83.23-163.75h173.84c9.72 0 17.64 7.92 17.64 17.64v153.92z"/><path d="M438.45 246.03l-79.84 79.84-37.07-37.07a8.02 8.02 0 1 0-11.34 11.34l42.74 42.74a8 8 0 0 0 11.34 0l85.51-85.52a8.02 8.02 0 0 0-11.34-11.33zm-285.07 40.43a8.03 8.03 0 0 0 0 16.05 8.03 8.03 0 0 0 8.03-8.01v-.01c0-4.43-3.6-8.03-8.03-8.03zm0-136.81c-28 0-50.77 22.78-50.77 50.78a8.02 8.02 0 0 0 16.03 0 34.78 34.78 0 0 1 34.74-34.74c9.03 0 17.7 3.68 24.38 10.36s10.36 15.34 10.36 24.38a34.96 34.96 0 0 1-24.74 33.28 25 25 0 0 0-18.02 24.02v2.56a8.02 8.02 0 0 0 16.04 0v-2.56c0-4 2.64-7.48 6.58-8.66a51.1 51.1 0 0 0 36.17-48.64c0-13.32-5.34-26-15.06-35.72-9.7-9.7-22.4-15.06-35.72-15.06z"/></svg>