<svg xmlns="http://www.w3.org/2000/svg" viewBox="0 0 286.05 286.05"><path fill="#5CC514" d="M143.03 0C64.03 0 0 64.04 0 143.03c0 79 64.03 143.02 143.03 143.02 78.98 0 143.02-64.03 143.02-143.02C286.05 64.04 222.01 0 143.03 0zm0 259.24c-64.19 0-116.21-52.03-116.21-116.21s52.02-116.2 116.2-116.2 116.22 52.01 116.22 116.2-52.04 116.2-116.21 116.2zm53.8-134.1H160.9V89.4c0-4.93-4-8.94-8.94-8.94h-17.88c-4.94 0-8.94 4-8.94 8.94v35.76H89.4c-4.95 0-8.96 4-8.96 8.94v17.88c0 4.94 4 8.94 8.96 8.94h35.75v35.67c0 4.94 4 8.93 8.94 8.93h17.88c4.93 0 8.93-4 8.93-8.93v-35.67h35.94c4.95 0 8.96-4 8.96-8.94V134.1a8.97 8.97 0 0 0-8.97-8.94z"/></svg>