<svg xmlns="http://www.w3.org/2000/svg" viewBox="0 0 512 512"><path fill="#f0f0f0" d="M34.9 465.45h364.73c9.2 0 18.17-3.72 24.68-10.21l54.19-54.2a35.15 35.15 0 0 0 10.23-24.68V81.46c0-6.42-5.23-11.64-11.64-11.64H34.91a11.66 11.66 0 0 0-11.64 11.64v372.36c0 6.41 5.23 11.63 11.64 11.63z" data-old_color="#F1F1F2" data-original="#ECEFF9"/><path fill="#e04c3c" d="M488.73 81.45c0-6.4-5.23-11.63-11.64-11.63H34.91a11.66 11.66 0 0 0-11.64 11.64v69.81h465.46V81.45z" data-old_color="#DF4B3B" data-original="#F04D4E"/><path fill="#de4c3c" d="M477.1 69.82h-11.65v34.9A23.27 23.27 0 0 1 442.19 128H46.55a23.27 23.27 0 0 0-23.28 23.27h465.46V81.45c0-6.42-5.22-11.63-11.64-11.63z" data-old_color="#de4c3c" data-original="#DD353F"/><circle cx="116.36" cy="267.64" r="23.27" data-old_color="#020202" data-original="#014463"/><circle cx="209.46" cy="267.64" r="23.27" data-old_color="#020202" data-original="#014463"/><circle cx="302.55" cy="267.64" r="23.27" data-old_color="#020202" data-original="#014463"/><circle cx="395.64" cy="267.64" r="23.27" data-old_color="#020202" data-original="#014463"/><circle cx="116.36" cy="360.73" r="23.27" data-old_color="#020202" data-original="#014463"/><circle cx="209.46" cy="360.73" r="23.27" data-old_color="#020202" data-original="#014463"/><circle cx="302.55" cy="360.73" r="23.27" fill="#de4c3c" data-old_color="#de4c3c" data-original="#F04B4D"/><circle cx="395.64" cy="360.73" r="23.27" fill="#de4c3c" data-old_color="#de4c3c" data-original="#F04B4D"/><rect width="465.45" height="23.27" x="23.27" y="174.54" fill="#f0f0f0" data-old_color="#F6F6F6" data-original="#D4E3EE"/><path d="M477.1 46.55H372.35V34.9a11.64 11.64 0 0 0-23.27 0v11.64H162.91V34.9a11.64 11.64 0 0 0-23.27 0v11.64H34.9A34.95 34.95 0 0 0 0 81.44v372.37a34.95 34.95 0 0 0 34.9 34.9h364.73a57.8 57.8 0 0 0 41.13-17.03l54.2-54.19A57.8 57.8 0 0 0 512 376.35V81.45a34.95 34.95 0 0 0-34.9-34.9zM430.53 449v-30.1c0-6.4 5.23-11.63 11.64-11.63h30.1L430.54 449zm58.19-88.27A23.3 23.3 0 0 1 465.45 384h-23.27a34.95 34.95 0 0 0-34.9 34.9v23.28A23.3 23.3 0 0 1 384 465.46H34.9a11.66 11.66 0 0 1-11.63-11.64V174.55h465.46v186.18zm0-209.46H23.27V81.45c0-6.4 5.23-11.63 11.64-11.63h104.73v14.87A23.18 23.18 0 0 0 128 104.73a23.28 23.28 0 0 0 46.54 0c0-8.6-4.7-16.03-11.63-20.05V69.82h186.18v14.87a23.18 23.18 0 0 0-11.63 20.04 23.28 23.28 0 0 0 46.54 0c0-8.6-4.71-16.03-11.64-20.05V69.82H477.1c6.41 0 11.64 5.22 11.64 11.63v69.82z" data-old_color="#020202" data-original="#014463"/><path fill="#f0f0f0" d="M430.55 449v-30.1c0-6.4 5.22-11.63 11.63-11.63h30.1L430.54 449z" data-old_color="#BFC0C1" data-original="#C4D7E5"/></svg>