<svg xmlns="http://www.w3.org/2000/svg" viewBox="0 0 286.05 286.05"><path fill="#e2574c" d="M168.35 142.92l25.28-25.28a8.93 8.93 0 0 0 0-12.64L181 92.36a8.94 8.94 0 0 0-12.64 0l-25.29 25.28-25.27-25.27a8.95 8.95 0 0 0-12.66-.01L92.5 105a8.93 8.93 0 0 0 .02 12.65l25.27 25.27-25.22 25.23a8.93 8.93 0 0 0 0 12.64l12.64 12.65a8.94 8.94 0 0 0 12.64 0l25.22-25.23 25.4 25.42a8.94 8.94 0 0 0 12.67 0L193.76 181a8.95 8.95 0 0 0-.01-12.66l-25.4-25.42zM143.03 0C64.03 0 0 64.04 0 143.02c0 79 64.03 143.03 143.03 143.03s143.02-64.03 143.02-143.03C286.05 64.04 222.02 0 143.03 0zm0 259.23c-64.19 0-116.21-52.02-116.21-116.2S78.84 26.8 143.02 26.8s116.22 52.03 116.22 116.21-52.03 116.21-116.21 116.21z"/></svg>