<svg xmlns="http://www.w3.org/2000/svg" viewBox="0 0 286.05 286.05"><path fill="#e2574c" d="M143.03 0C64.04 0 0 64.04 0 143.03c0 79 64.04 143.02 143.03 143.02 79 0 143.02-64.02 143.02-143.02C286.05 64.04 222.02 0 143.03 0zm0 259.24c-64.19 0-116.21-52.03-116.21-116.21S78.84 26.82 143.02 26.82s116.22 52.02 116.22 116.2-52.03 116.22-116.21 116.22zm0-196.51c-10.24 0-17.99 5.34-17.99 13.98v79.2c0 8.64 7.75 13.97 18 13.97 9.99 0 18-5.55 18-13.97V76.7c-.01-8.43-8.01-13.98-18-13.98zm0 125a17.88 17.88 0 0 0-17.85 17.85 17.86 17.86 0 1 0 17.85-17.86z"/></svg>