<svg xmlns="http://www.w3.org/2000/svg" viewBox="0 0 201.39 201.39"><path d="M126.3 51.2H75.1a3.41 3.41 0 0 1-3.42-3.41V29c0-16 13.01-29.01 29.01-29.01S129.7 13.01 129.7 29v18.8a3.41 3.41 0 0 1-3.4 3.41zm-47.8-6.83h44.38V29.01c0-12.23-9.96-22.18-22.19-22.18S78.5 16.78 78.5 29v15.36z"/><polygon fill="#8c6b3b" points="175.785 64.853 25.598 64.853 35.838 47.787 165.545 47.787"/><path d="M175.78 68.27H25.6a3.41 3.41 0 0 1-2.93-5.17l10.24-17.07a3.4 3.4 0 0 1 2.93-1.66h129.7c1.2 0 2.32.63 2.93 1.66l10.24 17.07a3.41 3.41 0 0 1-2.93 5.17zM31.63 61.44h138.13L163.6 51.2H37.77l-6.14 10.24z"/><rect width="47.78" height="51.2" x="105.81" y="27.29" fill="#83d816" transform="rotate(-166.838 129.705 52.891)"/><path d="M147.14 86.69a3.1 3.1 0 0 1-.78-.1L99.83 75.72a3.41 3.41 0 0 1-2.55-4.1l11.67-49.85a3.4 3.4 0 0 1 4.1-2.54l46.53 10.88a3.41 3.41 0 0 1 2.54 4.1l-11.66 49.85a3.41 3.41 0 0 1-3.32 2.64zm-42.43-16.84l39.88 9.32 10.1-43.2-39.88-9.33-10.1 43.2z"/><rect width="57.49" height="61.59" x="42.33" y="16.94" fill="#2a8ee6" transform="rotate(173.265 71.07 47.74)"/><path d="M46.13 85.12a3.41 3.41 0 0 1-3.38-3.02l-7.23-61.16a3.42 3.42 0 0 1 2.99-3.8L95.6 10.4a3.41 3.41 0 0 1 3.79 2.99l7.23 61.17a3.4 3.4 0 0 1-2.99 3.79l-57.09 6.74-.4.03zm-3.43-61.6l6.43 54.4 50.3-5.95-6.42-54.4-50.31 5.95z"/><rect width="56.56" height="59.52" x="70.59" y="41.97" fill="#ed5481" transform="rotate(166.483 98.87 71.728)"/><path d="M78.32 110.69a3.41 3.41 0 0 1-3.31-2.62L61.09 50.2a3.41 3.41 0 0 1 2.52-4.11l54.99-13.23a3.43 3.43 0 0 1 4.12 2.52l13.91 57.88a3.4 3.4 0 0 1-2.52 4.11L79.12 110.6c-.26.07-.53.1-.8.1zm-9.8-58.77l12.33 51.24 48.35-11.62-12.32-51.24-48.35 11.63z"/><polygon fill="#fbad4a" points="182.612 197.973 18.772 197.973 25.598 64.853 175.785 64.853"/><path d="M182.61 201.39H18.77a3.42 3.42 0 0 1-3.4-3.6l6.82-133.11a3.41 3.41 0 0 1 3.41-3.24h150.19a3.41 3.41 0 0 1 3.4 3.24l6.83 133.12a3.41 3.41 0 0 1-3.4 3.59zm-160.25-6.83h156.66l-6.48-126.3H28.84l-6.48 126.3z"/><circle cx="126.29" cy="85.33" r="6.83" fill="#8c6b3b"/><path d="M126.3 95.57a10.25 10.25 0 0 1 0-20.48 10.25 10.25 0 0 1 0 20.48zm0-13.65a3.42 3.42 0 1 0 0 6.83 3.42 3.42 0 0 0 0-6.83z"/><circle cx="75.09" cy="85.33" r="6.83" fill="#8c6b3b"/><path d="M75.1 95.57a10.25 10.25 0 0 1 0-20.48 10.25 10.25 0 0 1 0 20.48zm0-13.65a3.42 3.42 0 1 0 0 6.83 3.42 3.42 0 0 0 0-6.83z"/><path d="M100.7 136.53c-16 0-29.02-13.01-29.02-29.01V88.75a3.41 3.41 0 0 1 6.82 0v18.77c0 12.23 9.96 22.19 22.2 22.19s22.18-9.96 22.18-22.19V90.06a3.41 3.41 0 0 1 3.15-4.73h.26a3.41 3.41 0 0 1 3.41 3.42v18.77c0 16-13.01 29.01-29 29.01z"/></svg>