<svg xmlns="http://www.w3.org/2000/svg" viewBox="0 0 286.05 286.05"><path fill="#5CC514" d="M143.03 0C64.03 0 0 64.04 0 143.03c0 79 64.03 143.02 143.03 143.02 78.99 0 143.02-64.03 143.02-143.02C286.05 64.05 222.02 0 143.03 0zm0 259.24c-64.18 0-116.2-52.03-116.2-116.21S78.85 26.82 143.02 26.82s116.2 52.02 116.2 116.2-52.02 116.22-116.2 116.22zm56.21-177.05A12.45 12.45 0 0 0 181.9 87l-47.96 86.15-26.71-32.51c-4.84-5.57-11.26-8.46-17.33-4.83-6.08 3.64-8.6 12.4-4.66 18l37.17 45.25c2.78 3.6 5.95 5.77 9.27 6.39l.03.05.34.02c.75.12 11.97 2.2 16.81-6.46l55.05-98.88c3.5-6.31 1.41-14.36-4.67-18z" data-old_color="#5CC614" data-original="#3DB39E"/></svg>