<svg xmlns="http://www.w3.org/2000/svg" viewBox="0 0 511.19 511.19"><path fill="#292f33" d="M364.86 157.94L266.25 12.65C257.71.06 244.1.33 236 13.18L145.12 157.4c-8.08 12.85-2.56 23.38 12.3 23.38h26.64v50.15a28.45 28.45 0 0 0 28.45 28.45h85.34a28.44 28.44 0 0 0 28.44-28.45v-50.15h27c14.87 0 20.12-10.26 11.56-22.85M51.12 338.63h-31.5C5.76 338.63 0 328.5 0 318.7c0-10.1 7.22-19.91 19.64-19.91h106.22c12.44 0 19.67 9.81 19.67 19.91 0 9.8-5.78 19.93-19.67 19.93H94.41v144.9c0 14.46-9.23 22.53-21.65 22.53S51.11 498 51.11 483.54V338.63zm249.44 62.93c0-34.92-18.19-66.41-54.27-66.41-36.1 0-54.29 31.49-54.29 66.41 0 35.22 17.63 66.39 54.29 66.39s54.27-31.17 54.27-66.39m-153.59 0c0-60.05 40.4-106.25 99.32-106.25 58 0 99.3 47.65 99.3 106.25 0 59.75-40.13 106.25-99.3 106.25-58.62 0-99.32-46.5-99.32-106.25M407 398.1h29.45c18.17 0 29.71-13.28 29.71-30.59 0-17.34-11.54-30.62-29.71-30.62H407v61.2zm-43.33-76.79c0-13.57 8.09-22.5 22.54-22.5h51.08c42.46 0 73.9 27.7 73.9 68.99 0 42.12-32.6 68.41-72.16 68.41H407v47.35c0 14.44-9.24 22.53-21.62 22.53-12.47 0-21.7-8.1-21.7-22.53V321.3z"/></svg>