<svg xmlns="http://www.w3.org/2000/svg" viewBox="0 0 512 512"><path fill="#303c42" d="M462.52 234.67h-48.56a117.31 117.31 0 0 0 12.7-53.34c0-26.91-15.24-57.99-45.3-92.35C305.68 2.5 260.85 0 256 0c-4.85 0-49.69 2.5-125.35 88.98-30.07 34.36-45.32 65.44-45.32 92.35a117.4 117.4 0 0 0 12.71 53.34H49.48a49.53 49.53 0 0 0-48.52 59.2L37.73 477.7A42.8 42.8 0 0 0 79.56 512h352.88a42.8 42.8 0 0 0 41.83-34.3l36.77-183.85a49.53 49.53 0 0 0-48.52-59.19z"/><path fill="#5f6369" d="M313.37 234.67c13.68-12.87 20.48-28.24 23.78-36.36 12.9-5.26 21.62-22.72 24.44-35.2 25.84 8.27 38.72 17.93 43.48 22.27-1.05 24.57-10.9 42.16-15.76 49.29h-75.94z"/><path fill="#adb3b8" d="M194.2 189.27c-.8-1.96-1.45-3.57-2.01-4.72-1.8-3.69-5.2-5.99-9.3-5.99-3.84-1.13-10.74-13.64-11.97-20.97 21.56-4.8 49.33-8.26 85.08-8.26s63.52 3.46 85.08 8.26c-1.23 7.33-8.1 19.84-11.66 20.94-4.09 0-7.82 2.33-9.6 6.02-.57 1.15-1.22 2.76-2.03 4.72-5.96 14.74-18.37 45.4-61.8 45.4s-55.82-30.66-61.78-45.4z"/><path d="M180.94 176.96c19.97-3.71 44.34-6.3 74.8-6.3 30.76 0 55.3 2.64 75.38 6.41 3.7-3.35 8.9-13.14 9.96-19.48-21.56-4.8-49.33-8.26-85.08-8.26s-63.52 3.46-85.08 8.27c1.05 6.25 6.14 15.85 10.03 19.36z" opacity=".1"/><path fill="#797d82" d="M146.69 103.02c69.23-79.1 109.14-81.68 109.08-81.69.4.01 40.31 2.6 109.54 81.7 16.76 19.14 28.39 37.1 34.64 53.15C376.2 143.09 332.36 128 256 128s-120.2 15.1-143.95 28.18c6.25-16.05 17.89-34 34.64-53.16z"/><path fill="#fff" d="M134.5 128.17C211.45 49.08 255.81 46.5 255.74 46.5c.44 0 44.81 2.59 121.76 81.68a258.55 258.55 0 0 1 20.52 23.8c-6.56-14.97-17.38-31.42-32.7-48.95-69.24-79.1-109.15-81.68-109.55-81.69.06.01-39.85 2.6-109.08 81.69-15.33 17.53-26.15 33.98-32.71 48.96a258.97 258.97 0 0 1 20.52-23.8z" opacity=".2"/><path fill="#5f6369" d="M106.92 185.4c4.85-4.4 17.74-14.04 43.5-22.29 2.81 12.49 11.53 29.94 24.43 35.2 3.3 8.11 10.1 23.48 23.78 36.36h-75.99c-4.88-7.07-14.67-24.49-15.72-49.27z"/><path d="M313.37 234.67c13.68-12.87 20.48-28.24 23.78-36.36 12.9-5.26 21.62-22.72 24.44-35.2 25.84 8.27 38.72 17.93 43.48 22.27-1.05 24.57-10.9 42.16-15.76 49.29h-75.94zM106.92 185.4c4.85-4.4 17.74-14.04 43.5-22.29 2.81 12.49 11.53 29.94 24.43 35.2 3.3 8.11 10.1 23.48 23.78 36.36h-75.99c-4.88-7.07-14.67-24.49-15.72-49.27z" opacity=".2"/><path fill="#f1f0ed" d="M490.13 289.68L453.35 473.5a21.41 21.41 0 0 1-20.91 17.16H79.56a21.41 21.41 0 0 1-20.91-17.16L21.88 289.69A28.18 28.18 0 0 1 49.48 256h413.04a28.18 28.18 0 0 1 27.6 33.68z"/><path d="M476.04 259.95c2.3 4.08 3.96 8.54 3.96 13.54 0 1.85-.19 3.7-.54 5.52l-36.77 183.83A21.41 21.41 0 0 1 421.77 480H68.9c-3.03 0-5.85-.82-8.5-1.99 3.42 7.47 10.7 12.66 19.16 12.66h352.88a21.41 21.41 0 0 0 20.91-17.16l36.78-183.83c.35-1.82.54-3.67.54-5.52 0-10.53-6.05-19.38-14.63-24.2z" opacity=".1"/><circle cx="256" cy="384" r="21.33" fill="#d7d8d6"/><linearGradient id="a" x1="-44.98" x2="-23" y1="637.37" y2="627.11" gradientTransform="matrix(21.3333 0 0 -21.3333 996.333 13791.667)" gradientUnits="userSpaceOnUse"><stop offset="0" stop-color="#fff" stop-opacity=".2"/><stop offset="1" stop-color="#fff" stop-opacity="0"/></linearGradient><path fill="url(#a)" d="M462.52 234.67h-48.56a117.31 117.31 0 0 0 12.7-53.34c0-26.91-15.24-57.99-45.3-92.35C305.68 2.5 260.85 0 256 0c-4.85 0-49.69 2.5-125.35 88.98-30.07 34.36-45.32 65.44-45.32 92.35a117.4 117.4 0 0 0 12.71 53.34H49.48a49.53 49.53 0 0 0-48.52 59.2L37.73 477.7A42.8 42.8 0 0 0 79.56 512h352.88a42.8 42.8 0 0 0 41.83-34.3l36.77-183.85a49.53 49.53 0 0 0-48.52-59.19z"/></svg>